<svg width="124" height="124" viewBox="0 0 124 124" fill="none" xmlns="http://www.w3.org/2000/svg">
<rect width="124" height="124" rx="30" fill="#F1F1F1"/>
<path fill-rule="evenodd" clip-rule="evenodd" d="M81.8333 62.0001C81.8333 74.5185 71.6851 84.6668 59.1667 84.6668C46.6482 84.6668 36.5 74.5185 36.5 62.0001C36.5 49.4816 46.6482 39.3334 59.1667 39.3334C66.5399 39.3334 73.0908 42.8539 77.2303 48.3056L60.8194 64.7164L49.8988 53.7958L44.8234 58.8713L58.2817 72.3296C59.6833 73.7312 61.9556 73.7312 63.3572 72.3296L80.7207 54.9661C81.4429 57.1804 81.8333 59.5447 81.8333 62.0001ZM85.1051 50.5817C86.645 54.0747 87.5 57.9375 87.5 62.0001C87.5 77.6482 74.8147 90.3334 59.1667 90.3334C43.5186 90.3334 30.8333 77.6482 30.8333 62.0001C30.8333 46.352 43.5186 33.6667 59.1667 33.6667C68.1037 33.6667 76.0742 37.8045 81.2672 44.2687L89.6845 35.8514L94.76 40.9268L85.1051 50.5817Z" fill="#545454"/>
</svg>
