<svg width="179" height="59" viewBox="0 0 179 59" fill="none" xmlns="http://www.w3.org/2000/svg">
<g opacity="0.3">
<g clip-path="url(#clip0_2018_198)">
<path d="M43.2409 20.7544C36.7552 20.7743 30.2695 20.7743 23.7821 20.7562C23.1568 20.7562 23.0252 21.0192 23.0324 21.5723C23.054 23.1738 23.036 24.7752 23.045 26.3766C23.045 26.5743 23.1135 26.7702 23.164 27.0459H37.7626C37.9067 29.6611 36.065 33.6529 33.8214 35.5699C28.6531 39.9843 22.7873 40.5919 16.7035 38.1616C8.89515 35.0422 5.02609 26.3585 7.39041 18.014C10.2467 7.92478 22.0863 3.09871 31.1075 8.37274C32.2086 9.01658 33.2069 9.83453 34.0557 10.4312C35.5352 9.07099 36.9967 7.73072 38.5537 6.29976C34.7008 2.62354 30.3308 0.532421 25.249 0.0953363C18.5092 -0.483212 12.6074 1.53536 7.51295 6.04948C1.03089 11.7896 -1.60914 21.2604 0.989446 29.4888C4.44042 40.4141 15.6763 47.8772 28.2512 45.1931C39.2619 42.8426 45.5241 33.2539 44.0284 21.4817C43.9671 20.9956 43.8031 20.7544 43.2409 20.7562V20.7544Z" fill="white"/>
<path d="M138.073 17.2837H132.054V19.5598C131.829 19.4438 131.71 19.4129 131.633 19.3404C127.873 15.773 123.5 15.4302 119.023 17.3962C109.328 21.6564 107.132 34.2521 114.644 41.6916C119.645 46.6446 127.745 47.1415 131.768 42.4678C131.798 42.4315 131.878 42.437 132.04 42.3989C132.153 44.5245 132.258 46.6446 131.362 48.6015C130.874 49.6661 130.207 50.7706 129.331 51.5106C126.052 54.2782 120.827 53.5745 118.175 50.1159C117.672 49.4612 117.274 48.723 116.794 47.974C114.987 48.7321 113.223 49.472 111.298 50.2791C111.675 50.981 111.959 51.574 112.296 52.1344C117.254 60.3484 127.259 60.3212 132.68 56.4454C136.403 53.783 137.958 49.8547 138.046 45.4857C138.232 36.3033 138.127 27.1172 138.138 17.9312C138.138 17.7263 138.098 17.5213 138.073 17.2855V17.2837ZM128.367 38.9367C125.273 40.8247 120.957 39.9142 118.557 36.9344C115.929 33.6735 115.899 28.4231 118.539 25.1531C120.521 22.6992 123.109 21.6274 126.208 22.2621C129.254 22.886 131.097 24.9554 132.015 27.859C132.337 28.8819 132.422 29.9791 132.615 31.0437C132.431 34.3899 131.285 37.1575 128.367 38.9385V38.9367Z" fill="white"/>
<path d="M92.9654 16.241C84.5587 16.1902 78.156 22.6867 78.1614 31.1436C78.2749 39.1943 84.3317 45.8104 92.9672 45.7542C101.464 45.698 107.449 39.285 107.593 31.3431C107.755 22.3965 100.959 16.29 92.9654 16.2428V16.241ZM97.0597 38.6466C92.8591 41.2455 87.379 39.5171 85.5102 34.9142C85.0021 33.6627 84.8435 32.2663 84.5245 30.9369C84.6002 30.9187 84.6741 30.9006 84.7498 30.8825C84.5497 26.8743 87.2853 23.2906 90.8119 22.4037C95.3982 21.2503 99.6871 23.9544 100.81 28.6916C101.754 32.6779 100.249 36.6734 97.0597 38.6484V38.6466Z" fill="white"/>
<path d="M60.8957 16.2865C52.098 16.2992 46.225 23.1293 46.2755 30.995C46.2286 39.189 52.6206 45.6056 60.7984 45.7036C68.9528 45.8015 75.6168 39.3359 75.6114 30.9968C75.6078 23.3216 69.9313 16.2738 60.8957 16.2847V16.2865ZM65.9109 38.1389C64.4728 39.3377 62.7446 39.909 60.9173 39.8909C55.9274 39.8419 52.1196 35.306 52.7287 30.1372C53.1972 26.1653 55.4066 23.3397 58.7801 22.393C63.6096 21.04 68.5887 24.5222 69.0807 29.5478C69.4141 32.9519 68.6014 35.8973 65.9091 38.1389H65.9109Z" fill="white"/>
<path d="M159.069 35.4277C162.3 34.0747 165.533 32.7181 168.768 31.3688C172.003 30.0194 175.241 28.6791 178.521 27.3189C178.396 26.9671 178.33 26.7077 178.218 26.4701C177.657 25.2695 177.175 24.0199 176.504 22.8846C172.289 15.748 163.441 14.0395 157.017 19.241C152.636 22.7885 151.192 27.6671 151.924 33.1171C153.528 45.0653 166.249 48.7433 174.282 43.2099C175.848 42.1308 177.144 40.7888 178.263 39.2018C176.576 38.0756 174.98 37.0073 173.329 35.9046C169.559 41.8171 161.158 40.8794 159.067 35.4277H159.069ZM164.019 22.1972C167.29 21.3757 170.465 23.1893 170.905 25.1117C166.647 26.8927 162.376 28.6791 158.078 30.4746C157.516 26.9671 160.325 23.124 164.018 22.1972H164.019Z" fill="white"/>
<path d="M142.526 44.746H148.848V1.58887H142.526V44.746Z" fill="white"/>
</g>
</g>
<defs>
<clipPath id="clip0_2018_198">
<rect width="178.521" height="58.9684" fill="white"/>
</clipPath>
</defs>
</svg>
