<svg width="308" height="80" viewBox="0 0 308 80" fill="none" xmlns="http://www.w3.org/2000/svg">
<path d="M31 26.0376C33.1 26.0376 35.0687 26.8688 36.5562 28.3563L51.6062 43.4063C54.6687 46.4688 54.6687 51.5001 51.6062 54.5626L36.5562 69.6126C35.0687 71.1001 33.1 71.9313 31 71.9313C28.9 71.9313 26.9312 71.1001 25.4437 69.6126L10.3937 54.5626C7.33125 51.5001 7.33125 46.4688 10.3937 43.4063L25.4437 28.3563C26.9312 26.8688 28.9 26.0376 31 26.0376ZM31 18.6438C27.1062 18.6438 23.1687 20.1313 20.1937 23.1063L5.14374 38.1563C-0.806256 44.1063 -0.806256 53.8188 5.14374 59.7688L20.1937 74.8188C23.1687 77.7938 27.1062 79.2813 31 79.2813C34.8937 79.2813 38.8312 77.7938 41.8063 74.8188L56.8562 59.7688C62.8062 53.8188 62.8062 44.1063 56.8562 38.1563L41.8063 23.1063C38.8312 20.1313 34.8937 18.6438 31 18.6438Z" fill="#FB6514"/>
<path d="M31 7.48749C33.1 7.48749 35.0687 8.31874 36.5562 9.80624L51.6062 24.8562C54.6687 27.9187 54.6687 32.95 51.6062 36.0125L36.5562 51.0625C35.0687 52.55 33.1 53.3813 31 53.3813C28.9 53.3813 26.9312 52.55 25.4437 51.0625L10.3937 36.0125C7.33125 32.95 7.33125 27.9187 10.3937 24.8562L25.4437 9.80624C26.9312 8.31874 28.9 7.48749 31 7.48749ZM31 0.09375C27.1062 0.09375 23.1687 1.58125 20.1937 4.55625L5.14374 19.6062C-0.806256 25.5562 -0.806256 35.2687 5.14374 41.2187L20.1937 56.2687C23.1687 59.2438 27.1062 60.7313 31 60.7313C34.8937 60.7313 38.8312 59.2438 41.8063 56.2687L56.8562 41.2187C62.8062 35.2687 62.8062 25.5562 56.8562 19.6062L41.8063 4.55625C38.8312 1.58125 34.8937 0.09375 31 0.09375Z" fill="#FB6514"/>
<path d="M110.356 15.1364H121.923L134.141 44.9432H134.661L146.878 15.1364H158.445V59.5H149.347V30.6246H148.979L137.498 59.2834H131.303L119.822 30.5163H119.454V59.5H110.356V15.1364ZM175.488 60.1282C173.365 60.1282 171.473 59.7599 169.812 59.0234C168.152 58.2725 166.838 57.1677 165.87 55.7092C164.917 54.2362 164.44 52.4021 164.44 50.207C164.44 48.3585 164.78 46.8061 165.458 45.5497C166.137 44.2933 167.061 43.2824 168.231 42.517C169.401 41.7517 170.729 41.174 172.217 40.7841C173.719 40.3942 175.293 40.1198 176.939 39.9609C178.874 39.7588 180.434 39.571 181.618 39.3977C182.802 39.21 183.662 38.9356 184.196 38.5746C184.73 38.2135 184.997 37.6792 184.997 36.9716V36.8416C184.997 35.4697 184.564 34.4083 183.698 33.6573C182.846 32.9064 181.633 32.5309 180.059 32.5309C178.398 32.5309 177.076 32.8991 176.094 33.6357C175.112 34.3577 174.463 35.2675 174.145 36.3651L165.61 35.6719C166.043 33.6501 166.895 31.9027 168.166 30.4297C169.437 28.9422 171.076 27.8014 173.083 27.0071C175.105 26.1984 177.445 25.794 180.102 25.794C181.95 25.794 183.719 26.0107 185.409 26.4439C187.113 26.8771 188.622 27.5486 189.936 28.4584C191.265 29.3683 192.312 30.538 193.077 31.9677C193.843 33.3829 194.225 35.0798 194.225 37.0582V59.5H185.474V54.886H185.214C184.68 55.9258 183.965 56.8428 183.07 57.6371C182.174 58.4169 181.098 59.0307 179.842 59.4783C178.585 59.9116 177.134 60.1282 175.488 60.1282ZM178.131 53.7596C179.488 53.7596 180.687 53.4924 181.726 52.9581C182.766 52.4093 183.582 51.6728 184.174 50.7486C184.766 49.8243 185.062 48.7773 185.062 47.6076V44.0767C184.774 44.2644 184.376 44.4377 183.871 44.5966C183.38 44.741 182.824 44.8782 182.203 45.0082C181.582 45.1237 180.961 45.232 180.34 45.3331C179.719 45.4197 179.156 45.4992 178.65 45.5714C177.567 45.7302 176.621 45.983 175.813 46.3295C175.004 46.6761 174.376 47.1455 173.928 47.7376C173.48 48.3152 173.257 49.0373 173.257 49.9038C173.257 51.1602 173.712 52.1205 174.621 52.7848C175.546 53.4347 176.715 53.7596 178.131 53.7596ZM209.096 26.2273L215.205 37.8597L221.465 26.2273H230.932L221.292 42.8636L231.191 59.5H221.769L215.205 47.9975L208.75 59.5H199.218L209.096 42.8636L199.565 26.2273H209.096ZM236.585 59.5V15.1364H265.959V22.8697H245.965V33.4407H264.009V41.174H245.965V59.5H236.585ZM272.095 59.5V26.2273H281.323V59.5H272.095ZM276.73 21.9382C275.358 21.9382 274.181 21.4833 273.199 20.5735C272.232 19.6493 271.748 18.5445 271.748 17.2592C271.748 15.9884 272.232 14.8981 273.199 13.9883C274.181 13.064 275.358 12.6019 276.73 12.6019C278.102 12.6019 279.272 13.064 280.24 13.9883C281.222 14.8981 281.713 15.9884 281.713 17.2592C281.713 18.5445 281.222 19.6493 280.24 20.5735C279.272 21.4833 278.102 21.9382 276.73 21.9382ZM306.413 26.2273V33.1591H286.375V26.2273H306.413ZM290.924 18.2557H300.152V49.2756C300.152 50.1276 300.282 50.7919 300.542 51.2685C300.802 51.7306 301.163 52.0555 301.625 52.2433C302.102 52.431 302.651 52.5249 303.272 52.5249C303.705 52.5249 304.138 52.4888 304.571 52.4165C305.005 52.3299 305.337 52.2649 305.568 52.2216L307.019 59.0884C306.557 59.2328 305.907 59.3989 305.07 59.5866C304.232 59.7888 303.214 59.9116 302.015 59.9549C299.791 60.0415 297.842 59.7455 296.166 59.0668C294.506 58.388 293.213 57.3338 292.289 55.9041C291.365 54.4744 290.91 52.6693 290.924 50.4886V18.2557Z" fill="white"/>
</svg>
