<svg width="35" height="46" viewBox="0 0 35 46" fill="none" xmlns="http://www.w3.org/2000/svg">
<path d="M17.325 14.8246C18.525 14.8246 19.65 15.2996 20.5 16.1496L29.1 24.7496C30.85 26.4996 30.85 29.3746 29.1 31.1246L20.5 39.7246C19.65 40.5746 18.525 41.0496 17.325 41.0496C16.125 41.0496 15 40.5746 14.15 39.7246L5.55 31.1246C3.8 29.3746 3.8 26.4996 5.55 24.7496L14.15 16.1496C15 15.2996 16.125 14.8246 17.325 14.8246ZM17.325 10.5996C15.1 10.5996 12.85 11.4496 11.15 13.1496L2.55 21.7496C-0.85 25.1496 -0.85 30.6996 2.55 34.0996L11.15 42.6996C12.85 44.3996 15.1 45.2496 17.325 45.2496C19.55 45.2496 21.8 44.3996 23.5 42.6996L32.1 34.0996C35.5 30.6996 35.5 25.1496 32.1 21.7496L23.5 13.1496C21.8 11.4496 19.55 10.5996 17.325 10.5996Z" fill="#FB6514"/>
<path d="M17.325 4.225C18.525 4.225 19.65 4.69999 20.5 5.54999L29.1 14.15C30.85 15.9 30.85 18.775 29.1 20.525L20.5 29.125C19.65 29.975 18.525 30.45 17.325 30.45C16.125 30.45 15 29.975 14.15 29.125L5.55003 20.525C3.80003 18.775 3.80003 15.9 5.55003 14.15L14.15 5.54999C15 4.69999 16.125 4.225 17.325 4.225ZM17.325 0C15.1 0 12.85 0.850001 11.15 2.55L2.55003 11.15C-0.84997 14.55 -0.84997 20.1 2.55003 23.5L11.15 32.1C12.85 33.8 15.1 34.65 17.325 34.65C19.55 34.65 21.8 33.8 23.5 32.1L32.1 23.5C35.5 20.1 35.5 14.55 32.1 11.15L23.5 2.55C21.8 0.850001 19.55 0 17.325 0Z" fill="#FB6514"/>
</svg>
