<svg width="174" height="35" viewBox="0 0 174 35" fill="none" xmlns="http://www.w3.org/2000/svg">
<g clip-path="url(#clip0_2018_206)">
<path d="M8.84511 34.8515C8.27493 34.6989 7.70475 34.5844 7.14724 34.3936C3.32069 33.1345 1.33139 30.2346 0.824562 26.4953C-0.252446 18.5588 1.49611 11.2074 6.50103 4.84807C9.0225 1.65567 12.3422 -0.226699 16.6249 0.167581C19.3491 0.421955 21.6045 1.64295 23.6318 3.38541C24.9876 4.55553 26.3813 5.67478 27.7498 6.81947L27.433 7.35365C27.9778 6.69228 28.51 6.03091 29.0675 5.38225C30.664 3.53804 32.3746 1.83373 34.6553 0.854391C38.4692 -0.786323 43.132 0.510986 46.3884 4.05951C50.2656 8.29484 52.1282 13.4078 52.6603 19.004C52.9011 21.5096 52.9518 24.0915 52.5843 26.5589C51.9761 30.6543 49.8981 33.7831 45.5521 34.8515H42.2197C38.9633 34.1265 36.6193 32.0915 34.858 29.4333C32.2986 25.5796 29.9165 21.6113 27.4583 17.694C27.2429 17.3506 27.0149 17.0199 26.7108 16.562C26.4067 17.0707 26.204 17.4014 26.0012 17.7448C24.1893 20.8482 22.4661 24.0152 20.5275 27.0422C18.2974 30.5271 15.8647 33.8594 11.4426 34.8515H8.81977H8.84511ZM48.0862 22.3236C47.7695 20.1741 47.5794 17.9992 47.1233 15.8752C46.3757 12.4284 45.0833 9.2233 42.4858 6.69228C39.7236 3.99591 36.4039 3.85601 33.6163 6.5015C32.3619 7.68434 31.3989 9.17243 30.3473 10.546C30.1952 10.7495 30.2079 11.2456 30.3473 11.4745C33.0715 15.8879 35.783 20.3013 38.5832 24.6638C39.3688 25.8848 40.2811 27.0804 41.3327 28.0724C43.5121 30.1456 46.5911 29.3061 47.4274 26.4317C47.8075 25.1217 47.8708 23.7226 48.0862 22.3236ZM24.3033 12.2376C22.5801 10.457 21.0723 8.58737 19.2477 7.112C18.2848 6.33615 16.8023 5.94187 15.5352 5.87828C13.1151 5.75109 11.5566 7.37909 10.2389 9.19786C8.03418 12.2249 6.95717 15.6717 6.45035 19.322C6.10824 21.8403 5.93085 24.3586 6.90649 26.8133C7.52736 28.3904 8.68039 29.1662 10.3783 29.1917C12.2789 29.2171 13.5333 28.0724 14.4962 26.7115C17.7779 22.0056 20.9583 17.2234 24.316 12.2504L24.3033 12.2376Z" fill="#A1A7B3"/>
<path d="M158.6 34.8515C155.394 34.1011 152.759 32.5621 150.972 29.675C147.399 23.888 148.704 15.1884 153.659 11.2583C157.333 8.33299 164.568 8.09133 167.824 12.2376C167.913 12.3521 168.052 12.4157 168.306 12.6065V9.64302H173.374V34.3682H168.293V30.8324C166.481 33.2617 164.175 34.2283 161.692 34.8388H158.587L158.6 34.8515ZM168.205 21.9802C168.205 21.9802 168.293 21.9802 168.344 21.9802C168.205 20.5302 168.407 18.9404 167.85 17.6812C166 13.4713 160.007 12.3903 156.649 15.5445C154.153 17.8975 153.937 20.9372 154.432 24.0279C155.128 28.365 157.84 30.4254 162.186 30.1201C165.721 29.8785 168.205 27.2584 168.205 23.7862C168.205 23.1884 168.205 22.6034 168.205 22.0056V21.9802Z" fill="#A1A7B3"/>
<path d="M114.722 34.8516C113.961 34.6608 113.188 34.4827 112.441 34.2665C107.664 32.9056 104.344 28.5685 104.002 23.3157C103.787 19.8562 104.344 16.5875 106.448 13.7385C109.349 9.80843 114.316 8.09141 119.194 9.45231C124.073 10.8132 126.303 14.4762 127.101 19.1694C127.354 20.6702 127.342 22.2092 127.468 23.8499H109.286C109.755 26.4827 110.844 28.6194 113.277 29.5987C117.18 31.1759 120.74 30.2983 124.009 27.5129C124.921 28.6321 125.834 29.7514 126.797 30.9342C124.693 33.0455 122.121 34.063 119.321 34.6226C119.055 34.6735 118.802 34.7753 118.548 34.8516H114.734H114.722ZM109.311 19.9071H122.058C122.299 16.5621 119.955 13.9039 116.495 13.5477C112.884 13.1662 109.831 15.8117 109.299 19.9071H109.311Z" fill="#A1A7B3"/>
<path d="M141.191 34.8514C139.721 34.3045 138.112 33.9738 136.819 33.1598C134.792 31.8752 134.108 29.6622 134.019 27.3982C133.867 23.4427 133.892 19.4745 133.854 15.519C133.854 15.0484 133.854 14.5905 133.854 13.9927H129.065V9.68107H133.804V2.55859H138.999V9.60476H146.398V13.9418H139.037C139.037 14.883 139.037 15.7097 139.037 16.5237C139.037 19.4109 139.037 22.3107 139.037 25.1979C139.037 25.872 139.087 26.5461 139.227 27.1947C139.683 29.3824 140.861 30.2218 143.395 30.1582C144.384 30.1328 145.359 30.0056 146.474 29.9165C146.474 31.2011 146.512 32.4603 146.436 33.7067C146.436 33.9229 146.018 34.2409 145.752 34.3172C144.878 34.5461 143.978 34.6733 143.091 34.8387H141.178L141.191 34.8514Z" fill="#A1A7B3"/>
<path d="M81.6637 21.2678C85.2369 14.8195 88.734 8.56185 92.1804 2.27881C92.6239 1.47753 93.08 1.13413 94.0177 1.17229C95.7155 1.26132 97.4134 1.19772 99.1746 1.19772V34.1773H93.8783V9.55391C93.7896 9.5412 93.7009 9.51576 93.6122 9.50304C93.4221 9.82101 93.2194 10.139 93.0294 10.4569C90.2291 15.4681 87.4289 20.4793 84.654 25.5159C84.2612 26.2154 83.8051 26.4062 83.0068 26.5334C80.1052 26.9913 78.4707 25.9356 77.1783 23.2138C75.113 18.8513 72.5535 14.7304 70.1968 10.5205C70.0067 10.1771 69.804 9.84644 69.3732 9.54119V34.1773H64.0388V1.21044C66.0661 1.21044 68.1188 1.17229 70.1714 1.2486C70.4882 1.26132 70.8683 1.82094 71.0837 2.2025C74.3654 8.07854 77.6218 13.98 80.8782 19.8688C81.1062 20.2758 81.347 20.6828 81.6764 21.2678H81.6637Z" fill="#A1A7B3"/>
</g>
<defs>
<clipPath id="clip0_2018_206">
<rect width="172.866" height="34.7348" fill="white" transform="translate(0.520691 0.116699)"/>
</clipPath>
</defs>
</svg>
