<svg width="207" height="45" viewBox="0 0 207 45" fill="none" xmlns="http://www.w3.org/2000/svg">
<g clip-path="url(#clip0_2018_236)">
<path d="M61.8598 35.3753H57.5687V9.42826C57.8257 9.4156 58.1083 9.3903 58.391 9.3903C60.0098 9.3903 61.6157 9.4156 63.2345 9.37765C63.8768 9.35235 64.1723 9.55476 64.4036 10.1494C66.7161 15.9814 69.0672 21.8009 71.4055 27.6203C71.5211 27.9113 71.6496 28.2022 71.8423 28.645C72.0093 28.2529 72.1249 27.9998 72.2406 27.7342C74.6687 21.8894 77.0969 16.0447 79.4994 10.1873C79.7435 9.59272 80.039 9.3397 80.7199 9.365C82.4929 9.4156 84.2658 9.37765 86.0901 9.37765V35.3627H81.6321V15.6146C81.5678 15.6019 81.5036 15.5766 81.4265 15.564C81.3109 15.817 81.1953 16.0573 81.0925 16.3104C78.6258 22.4208 76.1462 28.5312 73.7052 34.6669C73.4739 35.2615 73.1913 35.5018 72.5361 35.4386C71.7395 35.3627 70.7631 35.6284 70.1978 35.2615C69.6582 34.9072 69.5297 33.9331 69.2471 33.2247C66.9345 27.595 64.6348 21.9527 62.3223 16.3104C62.2195 16.07 62.1039 15.8423 61.8598 15.6272V35.388V35.3753Z" fill="#A1A7B3"/>
<path d="M186.75 35.3499V20.3711H183.654V16.7656H186.737C186.737 15.918 186.75 15.159 186.737 14.3999C186.635 9.66846 190.373 6.67018 195.564 7.66961C195.808 7.72021 196.155 8.02383 196.168 8.2136C196.232 9.28893 196.193 10.3643 196.193 11.5028C195.615 11.3637 195.127 11.2119 194.639 11.136C192.737 10.8829 191.53 11.7559 191.324 13.6155C191.221 14.6023 191.311 15.6144 191.311 16.6771H197.928C197.928 15.5258 197.953 14.362 197.928 13.2107C197.915 12.7047 198.069 12.4643 198.583 12.3252C199.842 11.9836 201.088 11.5914 202.437 11.1866V16.7277H206.908V20.3079H202.476C202.463 20.6368 202.437 20.8898 202.437 21.1429C202.437 23.7869 202.437 26.431 202.437 29.075C202.437 31.9974 203.915 32.9082 206.69 31.7443C206.741 31.719 206.792 31.7317 206.947 31.7064C206.947 32.7817 206.959 33.857 206.921 34.9197C206.921 35.0842 206.677 35.3246 206.484 35.3752C204.698 35.9445 202.9 36.1089 201.101 35.4764C199.187 34.8059 198.274 33.3131 198.082 31.4281C197.928 29.9353 197.953 28.4171 197.94 26.9117C197.915 24.7484 197.94 22.5851 197.94 20.3711H191.298V35.3246H186.763L186.75 35.3499Z" fill="#A1A7B3"/>
<path d="M147.077 26.1526C146.949 27.0002 146.872 28.0629 146.615 29.075C145.6 33.0221 142.491 35.527 138.161 35.8053C136.812 35.8939 135.399 35.7927 134.088 35.4764C130.093 34.5149 127.652 31.251 127.536 26.8231C127.51 25.6466 127.613 24.4321 127.87 23.2809C128.757 19.3338 131.853 16.7024 136.003 16.4114C137.403 16.3102 138.868 16.3482 140.255 16.6138C143.865 17.3096 146.319 20.0422 146.846 23.7363C146.949 24.4701 146.987 25.2038 147.077 26.1653V26.1526ZM142.478 26.0261C142.298 25.0773 142.208 24.0146 141.874 23.0279C141.283 21.2314 139.96 20.194 138.033 20.0043C135.913 19.7892 134.063 20.3459 133.048 22.3068C131.789 24.7484 131.776 27.3039 132.971 29.7835C133.844 31.5799 135.733 32.4149 137.994 32.1998C140.075 31.9974 141.463 30.8841 142.002 28.8599C142.247 27.9744 142.311 27.0509 142.478 26.0135V26.0261Z" fill="#A1A7B3"/>
<path d="M163.599 26.2288C163.715 25.3433 163.779 24.445 163.959 23.5595C164.82 19.4606 167.852 16.7406 172.104 16.4117C173.505 16.2978 174.982 16.3231 176.357 16.6015C179.864 17.2973 181.997 19.5238 182.832 22.9143C183.333 24.8878 183.307 26.8993 182.832 28.8855C181.868 32.9338 178.708 35.5526 174.288 35.8182C172.939 35.8941 171.526 35.7929 170.216 35.4767C166.348 34.5405 163.946 31.4031 163.702 27.203C163.689 26.8867 163.702 26.5704 163.702 26.2541C163.676 26.2541 163.638 26.2541 163.612 26.2541L163.599 26.2288ZM168.134 26.115C168.417 27.2536 168.558 28.4554 169.008 29.5307C169.804 31.4537 171.667 32.3645 174.018 32.2127C176.074 32.0736 177.5 31.0109 178.091 29.0626C178.695 27.1017 178.721 25.1029 178.091 23.142C177.449 21.1685 175.933 20.0805 173.826 19.9919C171.487 19.8907 169.753 20.8142 168.969 22.7751C168.558 23.8125 168.417 24.9511 168.134 26.1276V26.115Z" fill="#A1A7B3"/>
<path d="M160.734 20.8268C159.257 20.4725 157.869 20.131 156.469 19.8273C156.16 19.7641 155.826 19.8273 155.505 19.8653C154.542 20.0045 153.835 20.5738 153.681 21.3202C153.488 22.1931 153.874 23.0027 154.786 23.4835C155.544 23.8883 156.353 24.1919 157.124 24.5588C157.869 24.9257 158.64 25.2546 159.334 25.71C162.533 27.8227 162.597 32.2379 159.424 34.4265C157.214 35.9573 154.709 36.0838 152.139 35.6537C151.291 35.5145 150.469 35.2615 149.647 34.9958C149.428 34.9199 149.159 34.6289 149.146 34.4139C149.094 33.1867 149.12 31.9469 149.12 30.5553C149.48 30.7704 149.711 30.9222 149.955 31.0487C151.664 31.9849 153.45 32.5795 155.441 32.2379C156.25 32.0988 156.944 31.7951 157.162 30.9096C157.381 30.0114 157.073 29.3029 156.16 28.7716C155.402 28.3288 154.567 27.9999 153.771 27.6203C153.116 27.3041 152.447 27.0257 151.818 26.6715C148.285 24.6347 148.118 19.9159 151.497 17.6134C153.475 16.2724 155.711 16.0827 157.998 16.3989C160.721 16.7658 160.721 16.8038 160.721 19.4605V20.7888L160.734 20.8268Z" fill="#A1A7B3"/>
<path d="M112.852 21.4592C108.997 19.3971 106.081 19.5362 104.102 21.7881C102.239 23.9135 102.098 28.025 103.833 30.2389C105.67 32.6047 108.432 32.7565 112.839 30.6817C112.839 31.9342 112.852 33.136 112.813 34.3378C112.813 34.5023 112.556 34.7427 112.376 34.8186C108.946 36.2861 105.503 36.4126 102.227 34.5023C99.1432 32.7059 97.9613 29.7835 97.9998 26.3677C97.9998 25.2924 98.1668 24.1918 98.4495 23.1671C99.6571 18.7266 103.666 16.0193 108.612 16.3355C109.832 16.4115 111.027 16.7657 112.235 17.006C112.697 17.0946 112.864 17.3982 112.852 17.879C112.813 19.0302 112.852 20.1941 112.852 21.4592Z" fill="#A1A7B3"/>
<path d="M116.243 16.8037H120.65V19.5995C120.65 19.5995 120.753 19.6375 120.804 19.6628C120.933 19.4224 121.061 19.182 121.202 18.9543C122.333 17.0061 124.286 16.1205 126.521 16.5254C127.009 16.6139 127.279 16.7657 127.254 17.335C127.215 18.5369 127.254 19.7513 127.254 20.9911C126.521 20.8014 125.892 20.599 125.249 20.4977C123.772 20.2574 122.616 20.8014 121.768 21.9906C120.984 23.0912 120.701 24.3436 120.701 25.6593C120.689 28.5943 120.701 31.5167 120.701 34.4517C120.701 34.7427 120.701 35.021 120.701 35.3626H116.269V16.8037H116.243Z" fill="#A1A7B3"/>
<path d="M94.9292 35.3752H90.4968V16.753C91.8458 16.753 93.2076 16.7403 94.5695 16.7783C94.698 16.7783 94.9035 17.1831 94.9164 17.4108C94.9549 18.6506 94.9292 19.8904 94.9292 21.1302C94.9292 25.5454 94.9292 29.9479 94.9292 34.3631V35.3625V35.3752Z" fill="#A1A7B3"/>
<path d="M92.6809 13.8685C91.1649 13.8432 90.0086 12.7553 90.0215 11.351C90.0215 9.92145 91.2548 8.78286 92.758 8.79551C94.274 8.79551 95.456 9.94675 95.456 11.389C95.456 12.8185 94.2483 13.8938 92.6809 13.8685Z" fill="#A1A7B3"/>
<path d="M44.4385 23.4961H23.3173V44.2942H44.4385V23.4961Z" fill="#A1A7B3"/>
<path d="M21.2746 23.4961H0.15332V44.2942H21.2746V23.4961Z" fill="#A1A7B3"/>
<path d="M21.2746 0.673828H0.15332V21.472H21.2746V0.673828Z" fill="#A1A7B3"/>
<path d="M44.4385 0.673828H23.3173V21.472H44.4385V0.673828Z" fill="#A1A7B3"/>
</g>
<defs>
<clipPath id="clip0_2018_236">
<rect width="206.793" height="43.6204" fill="white" transform="translate(0.15332 0.673828)"/>
</clipPath>
</defs>
</svg>
