<svg width="152" height="39" viewBox="0 0 152 39" fill="none" xmlns="http://www.w3.org/2000/svg">
<g clip-path="url(#clip0_2018_212)">
<path d="M0.386841 0.296267C4.24145 0.106549 6.81435 1.71441 8.10555 5.11986C10.0708 10.3134 12.0503 15.5212 14.4856 20.6151V0.39587H20.7517V36.1388C20.595 36.2669 20.4811 36.4376 20.3387 36.4661C16.1518 37.1586 13.3226 35.5033 11.851 31.5002C10.2844 27.2316 8.70368 22.9487 6.63871 18.7511V38.0028C4.41709 38.3016 2.43757 38.572 0.386841 38.8566L0.386841 0.296267Z" fill="#A1A7B3"/>
<path d="M128.942 0.481436C129.383 0.310689 129.469 0.253774 129.554 0.253774C133.599 0.0545695 136.376 1.81421 137.885 5.53269C138.455 6.94135 139.053 8.36424 139.865 10.3563C141.089 7.6528 142.271 5.43309 143.112 3.08532C143.909 0.851387 145.162 -0.201551 147.612 0.182629C148.751 0.367605 149.933 0.211087 151.457 0.211087C148.936 5.80304 146.615 11.0677 144.151 16.2755C143.396 17.8691 143.368 19.2067 144.066 20.843C146.558 26.691 148.879 32.596 151.428 38.871C149.05 38.5864 147.028 38.4583 145.063 38.0172C144.45 37.875 143.852 36.9785 143.553 36.2955C142.229 33.2933 141.018 30.234 139.537 26.6341C138.198 29.5653 136.903 31.9415 136.005 34.46C135.251 36.5659 134.111 37.1777 132.018 36.6513C130.907 36.3667 129.696 36.4236 128.158 36.3098C130.522 31.0309 132.659 26.0507 135.008 21.1845C135.934 19.2636 136.034 17.6557 135.151 15.6779C132.958 10.712 131.035 5.64652 128.942 0.495665V0.481436Z" fill="#A1A7B3"/>
<path d="M27.1744 0.310547H44.5771V6.20131H33.5972V14.326H41.8286V20.3306H33.583V29.3944C37.2714 29.181 40.8175 28.9818 44.5487 28.7683V34.6733C38.8237 35.0717 33.0845 35.4844 27.1887 35.897V0.310547H27.1744Z" fill="#A1A7B3"/>
<path d="M78.9553 20.0744V33.7057H72.8031V0.324707H90.1488V6.20124H79.2116V13.9987H87.5V20.0744H78.9553Z" fill="#A1A7B3"/>
<path d="M94.5778 0.268066H100.73V28.3274C104.475 28.5693 107.922 28.797 111.582 29.0389V34.9154C105.999 34.6593 100.345 34.3889 94.5778 34.1186V0.268066Z" fill="#A1A7B3"/>
<path d="M55.5287 6.24421H48.9635V0.367676H68.2745V6.28689H61.9087V33.8909C59.7298 33.9905 57.7503 34.0759 55.5429 34.1755V6.24421H55.5287Z" fill="#A1A7B3"/>
<path d="M117.15 0.324707H123.259V35.7689C121.152 35.6266 119.229 35.4985 117.15 35.3562V0.324707Z" fill="#A1A7B3"/>
</g>
<defs>
<clipPath id="clip0_2018_212">
<rect width="151.056" height="38.7737" fill="white" transform="translate(0.386841 0.097168)"/>
</clipPath>
</defs>
</svg>
