<svg width="158" height="39" viewBox="0 0 158 39" fill="none" xmlns="http://www.w3.org/2000/svg">
<g clip-path="url(#clip0_2018_220)">
<path d="M121.111 8.96387H112.494C111.906 8.96387 111.4 9.38769 111.318 9.97556L107.83 32.0551C107.762 32.4926 108.103 32.8891 108.541 32.8891H112.959C113.37 32.8891 113.725 32.5883 113.794 32.1782L114.778 25.9166C114.874 25.3287 115.367 24.9049 115.968 24.9049H118.69C124.367 24.9049 127.65 22.1569 128.498 16.7156C128.881 14.3368 128.511 12.4638 127.403 11.165C126.172 9.72948 124.011 8.96387 121.125 8.96387H121.111ZM122.11 17.0301C121.645 20.1199 119.279 20.1199 116.994 20.1199H115.695L116.611 14.3505C116.666 13.995 116.967 13.7489 117.323 13.7489H117.924C119.484 13.7489 120.947 13.7489 121.713 14.6376C122.165 15.1708 122.301 15.95 122.137 17.0438L122.11 17.0301Z" fill="#A1A7B3"/>
<path d="M59.6281 8.96387H51.0109C50.4227 8.96387 49.9166 9.38769 49.8209 9.97556L46.333 32.0551C46.2646 32.4926 46.6065 32.8891 47.0442 32.8891H51.1613C51.7495 32.8891 52.2556 32.4653 52.3513 31.8774L53.2951 25.9166C53.3909 25.3287 53.8833 24.9049 54.4715 24.9049H57.1934C62.8698 24.9049 66.1526 22.1569 67.0006 16.7156C67.3836 14.3368 67.0143 12.4638 65.9064 11.165C64.6753 9.72948 62.5005 8.96387 59.6281 8.96387ZM60.6266 17.0301C60.1616 20.1199 57.7952 20.1199 55.511 20.1199H54.2116L55.128 14.3505C55.1827 13.995 55.4836 13.7489 55.8393 13.7489H56.4411C58.0004 13.7489 59.464 13.7489 60.2299 14.6376C60.6813 15.1708 60.8181 15.95 60.654 17.0438L60.6266 17.0301Z" fill="#A1A7B3"/>
<path d="M85.3978 16.9346H81.267C80.9114 16.9346 80.6104 17.1943 80.5557 17.5361L80.3779 18.6845L80.0907 18.2607C79.2016 16.9619 77.2046 16.5381 75.2212 16.5381C70.6664 16.5381 66.7682 19.9833 66.0022 24.8367C65.6055 27.2566 66.1663 29.5534 67.5341 31.1667C68.7925 32.6432 70.598 33.2584 72.7318 33.2584C76.4112 33.2584 78.4493 30.8932 78.4493 30.8932L78.2715 32.0416C78.2031 32.4791 78.545 32.8756 78.9827 32.8756H82.7032C83.2913 32.8756 83.7974 32.4518 83.8795 31.8639L86.109 17.7549C86.1774 17.3174 85.8355 16.9209 85.3978 16.9209V16.9346ZM79.6393 24.9598C79.2426 27.3113 77.3687 28.8972 74.975 28.8972C73.7714 28.8972 72.8139 28.5144 72.1984 27.7898C71.5829 27.0652 71.364 26.0398 71.5555 24.8914C71.9248 22.5536 73.8261 20.9267 76.1787 20.9267C77.355 20.9267 78.2988 21.3095 78.928 22.0477C79.5572 22.786 79.8034 23.825 79.6256 24.9598H79.6393Z" fill="#A1A7B3"/>
<path d="M146.881 16.9346H142.75C142.395 16.9346 142.094 17.1943 142.039 17.5361L141.861 18.6845L141.574 18.2607C140.685 16.9619 138.688 16.5381 136.705 16.5381C132.15 16.5381 128.251 19.9833 127.485 24.8367C127.089 27.2566 127.65 29.5534 129.017 31.1667C130.276 32.6432 132.081 33.2584 134.215 33.2584C137.895 33.2584 139.933 30.8932 139.933 30.8932L139.755 32.0416C139.686 32.4791 140.028 32.8756 140.466 32.8756H144.186C144.775 32.8756 145.281 32.4518 145.363 31.8639L147.592 17.7549C147.661 17.3174 147.319 16.9209 146.881 16.9209V16.9346ZM141.123 24.9598C140.726 27.3113 138.852 28.8972 136.458 28.8972C135.255 28.8972 134.297 28.5144 133.682 27.7898C133.066 27.0652 132.847 26.0398 133.039 24.8914C133.408 22.5536 135.309 20.9267 137.662 20.9267C138.838 20.9267 139.782 21.3095 140.411 22.0477C141.041 22.786 141.287 23.825 141.109 24.9598H141.123Z" fill="#A1A7B3"/>
<path d="M107.379 16.9346H103.234C102.837 16.9346 102.468 17.126 102.249 17.4541L96.5318 25.8758L94.1108 17.7822C93.9603 17.2764 93.4953 16.9346 92.9618 16.9346H88.8857C88.3933 16.9346 88.0514 17.4131 88.2018 17.8779L92.7703 31.276L88.4754 37.3325C88.1334 37.8111 88.4754 38.4673 89.0635 38.4673H93.208C93.6047 38.4673 93.974 38.2759 94.1928 37.9478L107.994 18.0556C108.322 17.5771 107.994 16.9346 107.406 16.9346H107.379Z" fill="#A1A7B3"/>
<path d="M151.737 9.57909L148.194 32.0551C148.126 32.4926 148.468 32.8891 148.905 32.8891H152.462C153.05 32.8891 153.556 32.4653 153.652 31.8774L157.14 9.79783C157.208 9.36034 156.866 8.96387 156.428 8.96387H152.448C152.092 8.96387 151.791 9.22363 151.737 9.56542V9.57909Z" fill="#A1A7B3"/>
<path opacity="0.68" d="M29.3585 10.1394C29.8235 7.18637 29.3585 5.17665 27.7581 3.35833C26.0073 1.34861 22.834 0.500977 18.7853 0.500977H7.02208C6.18772 0.500977 5.49013 1.10253 5.35335 1.92282L0.442899 33.0803C0.347152 33.6955 0.825887 34.2561 1.4414 34.2561H8.71817L8.21208 37.4415C8.13001 37.9747 8.54036 38.4669 9.08748 38.4669H15.2153C15.9402 38.4669 16.5557 37.9337 16.6652 37.2228L16.7199 36.9083L17.8688 29.5804L17.9372 29.1702C18.0467 28.4593 18.6622 27.9261 19.3871 27.9261H20.3036C26.2399 27.9261 30.8768 25.5063 32.2446 18.5201C32.8054 15.5944 32.5181 13.1608 31.0135 11.4519C30.5622 10.9324 30.0014 10.5086 29.3311 10.1531" fill="#A1A7B3"/>
<path opacity="0.7" d="M29.3585 10.1394C29.8235 7.18637 29.3585 5.17665 27.7581 3.35833C26.0073 1.34861 22.834 0.500977 18.7853 0.500977H7.02208C6.18772 0.500977 5.49013 1.10253 5.35335 1.92282L0.442899 33.0803C0.347152 33.6955 0.825887 34.2561 1.4414 34.2561H8.71817L10.5374 22.6489L10.4827 23.018C10.6058 22.1978 11.317 21.5962 12.1377 21.5962H15.5846C22.369 21.5962 27.6761 18.8345 29.2354 10.8504C29.2764 10.6179 29.3175 10.3855 29.3585 10.1668" fill="#A1A7B3"/>
<path d="M12.507 10.1804C12.5891 9.68827 12.9037 9.27812 13.3277 9.07305C13.5192 8.97735 13.7381 8.92266 13.9569 8.92266H23.176C24.2702 8.92266 25.2824 8.99102 26.2262 9.14141C26.4861 9.18242 26.746 9.23711 27.0058 9.29179C27.2521 9.34648 27.4983 9.41484 27.7445 9.4832C27.8676 9.52421 27.977 9.55155 28.1001 9.59257C28.5515 9.74296 28.9892 9.92069 29.3722 10.1394C29.8372 7.18637 29.3722 5.17665 27.7718 3.35833C26.021 1.34861 22.8477 0.500977 18.799 0.500977H7.02208C6.18772 0.500977 5.49013 1.10253 5.35335 1.92282L0.442899 33.0803C0.347152 33.6955 0.825887 34.2561 1.4414 34.2561H8.71817L10.5374 22.6489L12.4933 10.1804H12.507Z" fill="#A1A7B3"/>
</g>
<defs>
<clipPath id="clip0_2018_220">
<rect width="156.71" height="37.9659" fill="white" transform="translate(0.442871 0.500977)"/>
</clipPath>
</defs>
</svg>
